<?xml version="1.0" standalone="no"?>
<!DOCTYPE svg PUBLIC "-//W3C//DTD SVG 1.1//EN" "https://www.w3.org/Graphics/SVG/1.1/DTD/svg11.dtd">

<svg width="800" height="600" version="1.1" xmlns="http://www.w3.org/2000/svg">
    <rect x="0" y="0" width="800" height="600" fill="#fff" stroke="black" stroke-width="1"/>
    <ellipse stroke="black" stroke-width="1" fill="none" cx="120.5" cy="120.5" rx="30" ry="30"/>
    <text x="115.5" y="126.5" font-family="Times New Roman" font-size="20">0</text>
    <ellipse stroke="black" stroke-width="1" fill="none" cx="580.5" cy="120.5" rx="30" ry="30"/>
    <text x="575.5" y="126.5" font-family="Times New Roman" font-size="20">1</text>
    <ellipse stroke="black" stroke-width="1" fill="none" cx="692.5" cy="120.5" rx="30" ry="30"/>
    <text x="677.5" y="126.5" font-family="Times New Roman" font-size="20">101</text>
    <ellipse stroke="black" stroke-width="1" fill="none" cx="692.5" cy="120.5" rx="24" ry="24"/>
    <ellipse stroke="black" stroke-width="1" fill="none" cx="580.5" cy="232.5" rx="30" ry="30"/>
    <text x="575.5" y="238.5" font-family="Times New Roman" font-size="20">2</text>
    <ellipse stroke="black" stroke-width="1" fill="none" cx="494.5" cy="308.5" rx="30" ry="30"/>
    <text x="489.5" y="314.5" font-family="Times New Roman" font-size="20">3</text>
    <ellipse stroke="black" stroke-width="1" fill="none" cx="692.5" cy="308.5" rx="30" ry="30"/>
    <text x="677.5" y="314.5" font-family="Times New Roman" font-size="20">102</text>
    <ellipse stroke="black" stroke-width="1" fill="none" cx="692.5" cy="308.5" rx="24" ry="24"/>
    <ellipse stroke="black" stroke-width="1" fill="none" cx="377.5" cy="420.5" rx="30" ry="30"/>
    <text x="372.5" y="426.5" font-family="Times New Roman" font-size="20">4</text>
    <ellipse stroke="black" stroke-width="1" fill="none" cx="692.5" cy="420.5" rx="30" ry="30"/>
    <text x="677.5" y="426.5" font-family="Times New Roman" font-size="20">103</text>
    <ellipse stroke="black" stroke-width="1" fill="none" cx="692.5" cy="420.5" rx="24" ry="24"/>
    <ellipse stroke="black" stroke-width="1" fill="none" cx="242.5" cy="500.5" rx="30" ry="30"/>
    <text x="237.5" y="506.5" font-family="Times New Roman" font-size="20">5</text>
    <ellipse stroke="black" stroke-width="1" fill="none" cx="692.5" cy="500.5" rx="30" ry="30"/>
    <text x="677.5" y="506.5" font-family="Times New Roman" font-size="20">104</text>
    <ellipse stroke="black" stroke-width="1" fill="none" cx="692.5" cy="500.5" rx="24" ry="24"/>
    <ellipse stroke="black" stroke-width="1" fill="none" cx="120.5" cy="500.5" rx="30" ry="30"/>
    <text x="105.5" y="506.5" font-family="Times New Roman" font-size="20">105</text>
    <ellipse stroke="black" stroke-width="1" fill="none" cx="120.5" cy="500.5" rx="24" ry="24"/>
    <polygon stroke="black" stroke-width="1" points="150.5,120.5 550.5,120.5"/>
    <polygon fill="black" stroke-width="1" points="550.5,120.5 542.5,115.5 542.5,125.5"/>
    <text x="346.5" y="141.5" font-family="Times New Roman" font-size="20">"</text>
    <path stroke="black" stroke-width="1" fill="none" d="M 110.186,92.454 A 22.5,22.5 0 1 1 136.487,95.253"/>
    <text x="49.5" y="35.5" font-family="Times New Roman" font-size="20">space / tabulation / blank</text>
    <polygon fill="black" stroke-width="1" points="136.487,95.253 145.559,92.666 138.137,85.965"/>
    <path stroke="black" stroke-width="1" fill="none" d="M 567.275,93.703 A 22.5,22.5 0 1 1 593.725,93.703"/>
    <text x="540.5" y="44.5" font-family="Times New Roman" font-size="20">not " nor \</text>
    <polygon fill="black" stroke-width="1" points="593.725,93.703 602.473,90.17 594.382,84.292"/>
    <polygon stroke="black" stroke-width="1" points="610.5,120.5 662.5,120.5"/>
    <polygon fill="black" stroke-width="1" points="662.5,120.5 654.5,115.5 654.5,125.5"/>
    <text x="632.5" y="141.5" font-family="Times New Roman" font-size="20">"</text>
    <path stroke="black" stroke-width="1" fill="none" d="M 566.265,206.246 A 91.178,91.178 0 0 1 566.265,146.754"/>
    <polygon fill="black" stroke-width="1" points="566.265,206.246 568.382,197.052 558.929,200.315"/>
    <text x="550.5" y="182.5" font-family="Times New Roman" font-size="20">\</text>
    <path stroke="black" stroke-width="1" fill="none" d="M 592.646,147.82 A 105.289,105.289 0 0 1 592.646,205.18"/>
    <polygon fill="black" stroke-width="1" points="592.646,147.82 590.014,156.88 599.636,154.156"/>
    <text x="601.5" y="182.5" font-family="Times New Roman" font-size="20">charval</text>
    <path stroke="black" stroke-width="1" fill="none" d="M 481.275,281.703 A 22.5,22.5 0 1 1 507.725,281.703"/>
    <text x="465.5" y="232.5" font-family="Times New Roman" font-size="20">charval</text>
    <polygon fill="black" stroke-width="1" points="507.725,281.703 516.473,278.17 508.382,272.292"/>
    <polygon stroke="black" stroke-width="1" points="147.304,133.974 467.696,295.026"/>
    <polygon fill="black" stroke-width="1" points="467.696,295.026 462.794,286.966 458.303,295.901"/>
    <text x="243.5" y="235.5" font-family="Times New Roman" font-size="20">charval</text>
    <polygon stroke="black" stroke-width="1" points="524.5,308.5 662.5,308.5"/>
    <polygon fill="black" stroke-width="1" points="662.5,308.5 654.5,303.5 654.5,313.5"/>
    <text x="548.5" y="329.5" font-family="Times New Roman" font-size="20">pas charval</text>
    <path stroke="black" stroke-width="1" fill="none" d="M 364.275,393.703 A 22.5,22.5 0 1 1 390.725,393.703"/>
    <text x="354.5" y="344.5" font-family="Times New Roman" font-size="20">intval</text>
    <polygon fill="black" stroke-width="1" points="390.725,393.703 399.473,390.17 391.382,384.292"/>
    <polygon stroke="black" stroke-width="1" points="140.017,143.283 357.983,397.717"/>
    <polygon fill="black" stroke-width="1" points="357.983,397.717 356.575,388.389 348.981,394.894"/>
    <text x="197.5" y="290.5" font-family="Times New Roman" font-size="20">intval</text>
    <polygon stroke="black" stroke-width="1" points="407.5,420.5 662.5,420.5"/>
    <polygon fill="black" stroke-width="1" points="662.5,420.5 654.5,415.5 654.5,425.5"/>
    <text x="496.5" y="441.5" font-family="Times New Roman" font-size="20">pas intval</text>
    <polygon stroke="black" stroke-width="1" points="129.671,149.064 233.329,471.936"/>
    <polygon fill="black" stroke-width="1" points="233.329,471.936 235.645,462.791 226.123,465.847"/>
    <text x="167.5" y="323.5" font-family="Times New Roman" font-size="20">-</text>
    <polygon stroke="black" stroke-width="1" points="272.5,500.5 662.5,500.5"/>
    <polygon fill="black" stroke-width="1" points="662.5,500.5 654.5,495.5 654.5,505.5"/>
    <text x="461.5" y="521.5" font-family="Times New Roman" font-size="20">&gt;</text>
    <polygon stroke="black" stroke-width="1" points="120.5,150.5 120.5,470.5"/>
    <polygon fill="black" stroke-width="1" points="120.5,470.5 125.5,462.5 115.5,462.5"/>
    <text x="109.5" y="316.5" font-family="Times New Roman" font-size="20">;</text>
</svg>
